<?xml version="1.0" encoding="UTF-8"?>
<svg id="Vrstva_3" data-name="Vrstva 3" xmlns="http://www.w3.org/2000/svg" viewBox="0 0 1500 847.33">
  <defs>
    <style>
      .cls-1 {
        fill: currentColor;
      }
    </style>
  </defs>
  <path class="cls-1" d="M1192.97,257.74c-87.91,0-159.43,71.52-159.43,159.43v172.28h52.46v-172.28c0-58.99,47.99-106.97,106.97-106.97s106.97,47.99,106.97,106.97-47.99,106.97-106.97,106.97c-9.56,0-18.87-1.27-27.87-3.69v-28.03c8.7,3.23,18.06,5.09,27.87,5.09,44.3,0,80.33-36.04,80.33-80.33s-36.04-80.33-80.33-80.33-80.33,36.04-80.33,80.33v172.28h52.46v-15.31c9.19,1.63,18.52,2.46,27.87,2.46,87.91,0,159.43-71.52,159.43-159.43s-71.52-159.43-159.43-159.43ZM1192.97,389.3c15.37,0,27.87,12.5,27.87,27.87s-12.5,27.87-27.87,27.87-27.87-12.5-27.87-27.87,12.5-27.87,27.87-27.87Z"/>
  <path class="cls-1" d="M712.06,451.81c-34.25-34.47-69.68-70.12-93.76-88.64-6.03-4.63-27.79-19.82-53.47-19.82-45.45,0-82.45,37-82.45,82.45s37,82.5,82.45,82.5c14.86,0,31.45-4.63,42.27-11.74,10.18-6.73,23.8-17.77,40.6-33.01,5.92,5.87,11.79,11.79,17.66,17.72-17.88,16.96-31.93,29.62-41.03,37-17.66,14.32-42.11,17.34-59.51,17.34-60.53,0-109.8-49.22-109.8-109.8s49.27-109.8,109.8-109.8c19.39,0,29.78,1.83,49.76,11.9,3.29,1.67,6.95,3.88,10.88,6.52,5.28,3.77,11.04,8.29,17.23,13.62l35.92-39.74c-7.59-6.84-16.37-14.32-23.16-18.69v.05c-5.82-3.93-11.31-7.16-16.64-9.85-29.35-14.81-48.68-17.66-73.99-17.66-90.2,0-163.66,73.45-163.66,163.66s73.45,163.66,163.66,163.66c37.43,0,69.74-10.12,93.43-29.35,9.48-7.7,25.74-22.51,44.64-40.44h.05l.32-.32c2.8-2.64,5.65-5.39,8.56-8.13l30.21-28.76c-9.05-8.94-20.03-20.57-30-30.64ZM577.64,451.49c-1.72.97-7.75,2.96-12.82,2.96-15.78,0-28.6-12.87-28.6-28.65s12.82-28.6,28.6-28.6c5.87,0,15.13,4.42,20.68,8.67,6.57,5.06,14.54,12.06,23.37,20.14-16.26,14.65-25.85,21.92-31.23,25.47Z"/>
  <path class="cls-1" d="M838.29,262.15c-48.14,0-95.37,22.94-129.51,62.9-1.34,1.55-2.99,3.41-4.77,5.41,0,0-.01-.01-.02-.02l-9.05,9.99c-1.88,2.04-3.86,4.17-5.92,6.38l.08.07-21.3,23.51c15.99,15.56,32.58,33.23,48.57,50.35,26.44,28.16,51.37,54.77,72.92,71.3,12.44,9.59,32.58,16.26,49.01,16.26,45.5,0,82.5-37,82.5-82.5s-37-82.45-82.5-82.45c-22.03,0-42.65,8.56-58.27,24.18-1.72,1.72-9.26,9.42-20.3,20.63-1.35-1.4-2.69-2.85-4.04-4.25-4.61-4.92-9.27-9.88-13.95-14.84,3.08-3.41,5.82-6.51,7.97-9.01,23.91-28,56.22-44.05,88.59-44.05,60.58,0,109.8,49.27,109.8,109.8s-49.22,109.8-109.8,109.8c-14.06,0-34.14-.97-46.04-9.64-3.5-2.53-7.43-5.6-11.74-9.21l-.07.08-14.61-14.46-37.84,38.32s11.86,12.02,16.02,15.81c5.82,5.3,11.47,9.37,16.64,13.09,24.34,17.61,54.28,19.87,77.66,19.87,90.26,0,163.66-73.4,163.66-163.66s-73.4-163.66-163.66-163.66ZM818.63,405.07c5.33-5.06,12.28-7.86,19.66-7.86,15.78,0,28.65,12.82,28.65,28.6s-12.87,28.65-28.65,28.65c-5.39,0-13.89-3.39-16.21-5.12-7.49-5.76-15.94-13.46-24.99-22.35,11.85-12.01,19.93-20.3,21.54-21.92Z"/>
  <path class="cls-1" d="M391.34,537.13h-84.31c-58.97,0-106.97-48-106.97-106.97v-169.11h-52.46v169.11c0,87.88,71.56,159.44,159.44,159.44h132.31c-18.89-14.53-35.15-32.32-48-52.46Z"/>
  <path class="cls-1" d="M307.03,510.48h69.99c-7.4-16.47-12.64-34.05-15.48-52.46h-54.51c-15.37,0-27.86-12.49-27.86-27.86v-169.11h-52.46v169.11c0,44.28,36.04,80.32,80.32,80.32Z"/>
</svg>