<svg xmlns="http://www.w3.org/2000/svg" style="display:none">

  <!-- The Loop symbol mark (icon only) -->
  <symbol id="symbol" viewBox="198 256 606 334">
    <path fill="currentColor" d="M511.62,449.68c-34.25-34.47-69.68-70.12-93.76-88.64-6.03-4.63-27.79-19.82-53.47-19.82-45.45,0-82.45,37-82.45,82.45s37,82.5,82.45,82.5c14.86,0,31.45-4.63,42.27-11.74,10.18-6.73,23.8-17.77,40.6-33.01,5.92,5.87,11.79,11.79,17.66,17.72-17.88,16.96-31.93,29.62-41.03,37-17.66,14.32-42.11,17.34-59.51,17.34-60.53,0-109.8-49.22-109.8-109.8s49.27-109.8,109.8-109.8c19.39,0,29.78,1.83,49.76,11.9,3.29,1.67,6.95,3.88,10.88,6.52,5.28,3.77,11.04,8.29,17.23,13.62l35.92-39.74c-7.59-6.84-16.37-14.32-23.16-18.69v.05c-5.82-3.93-11.31-7.16-16.64-9.85-29.35-14.81-48.68-17.66-73.99-17.66-90.2,0-163.66,73.45-163.66,163.66s73.45,163.66,163.66,163.66c37.43,0,69.74-10.12,93.43-29.35,9.48-7.7,25.74-22.51,44.64-40.44h.05l.32-.32c2.8-2.64,5.65-5.39,8.56-8.13l30.21-28.76c-9.05-8.94-20.03-20.57-30-30.64ZM377.2,449.35c-1.72.97-7.75,2.96-12.82,2.96-15.78,0-28.6-12.87-28.6-28.65s12.82-28.6,28.6-28.6c5.87,0,15.13,4.42,20.68,8.67,6.57,5.06,14.54,12.06,23.37,20.14-16.26,14.65-25.85,21.92-31.23,25.47Z"/>
    <path fill="currentColor" d="M637.85,260.01c-48.14,0-95.37,22.94-129.51,62.9-1.34,1.55-2.99,3.41-4.77,5.41,0,0-.01-.01-.02-.02l-9.05,9.99c-1.88,2.04-3.86,4.17-5.92,6.38l.08.07-21.3,23.51c15.99,15.56,32.58,33.23,48.57,50.35,26.44,28.16,51.37,54.77,72.92,71.3,12.44,9.59,32.58,16.26,49.01,16.26,45.5,0,82.5-37,82.5-82.5s-37-82.45-82.5-82.45c-22.03,0-42.65,8.56-58.27,24.18-1.72,1.72-9.26,9.42-20.3,20.63-1.35-1.4-2.69-2.85-4.04-4.25-4.61-4.92-9.27-9.88-13.95-14.84,3.08-3.41,5.82-6.51,7.97-9.01,23.91-28,56.22-44.05,88.59-44.05,60.58,0,109.8,49.27,109.8,109.8s-49.22,109.8-109.8,109.8c-14.06,0-34.14-.97-46.04-9.64-3.5-2.53-7.43-5.6-11.74-9.21l-.07.08-14.61-14.46-37.84,38.32s11.86,12.02,16.02,15.81c5.82,5.3,11.47,9.37,16.64,13.09,24.34,17.61,54.28,19.87,77.66,19.87,90.26,0,163.66-73.4,163.66-163.66s-73.4-163.66-163.66-163.66ZM618.19,402.93c5.33-5.06,12.28-7.86,19.66-7.86,15.78,0,28.65,12.82,28.65,28.6s-12.87,28.65-28.65,28.65c-5.39,0-13.89-3.39-16.21-5.12-7.49-5.76-15.94-13.46-24.99-22.35,11.85-12.01,19.93-20.3,21.54-21.92Z"/>
  </symbol>

  <!-- The Loop wordmark logo with "the" -->
  <symbol id="logo-full" viewBox="145 168 1208 423">
    <g>
      <path fill="currentColor" d="M1192.97,257.74c-87.91,0-159.43,71.52-159.43,159.43v172.28h52.46v-172.28c0-58.99,47.99-106.97,106.97-106.97s106.97,47.99,106.97,106.97-47.99,106.97-106.97,106.97c-9.56,0-18.87-1.27-27.87-3.69v-28.03c8.7,3.23,18.06,5.09,27.87,5.09,44.3,0,80.33-36.04,80.33-80.33s-36.04-80.33-80.33-80.33-80.33,36.04-80.33,80.33v172.28h52.46v-15.31c9.19,1.63,18.52,2.46,27.87,2.46,87.91,0,159.43-71.52,159.43-159.43s-71.52-159.43-159.43-159.43ZM1192.97,389.3c15.37,0,27.87,12.5,27.87,27.87s-12.5,27.87-27.87,27.87-27.87-12.5-27.87-27.87,12.5-27.87,27.87-27.87Z"/>
      <path fill="currentColor" d="M712.06,451.81c-34.25-34.47-69.68-70.12-93.76-88.64-6.03-4.63-27.79-19.82-53.47-19.82-45.45,0-82.45,37-82.45,82.45s37,82.5,82.45,82.5c14.86,0,31.45-4.63,42.27-11.74,10.18-6.73,23.8-17.77,40.6-33.01,5.92,5.87,11.79,11.79,17.66,17.72-17.88,16.96-31.93,29.62-41.03,37-17.66,14.32-42.11,17.34-59.51,17.34-60.53,0-109.8-49.22-109.8-109.8s49.27-109.8,109.8-109.8c19.39,0,29.78,1.83,49.76,11.9,3.29,1.67,6.95,3.88,10.88,6.52,5.28,3.77,11.04,8.29,17.23,13.62l35.92-39.74c-7.59-6.84-16.37-14.32-23.16-18.69v.05c-5.82-3.93-11.31-7.16-16.64-9.85-29.35-14.81-48.68-17.66-73.99-17.66-90.2,0-163.66,73.45-163.66,163.66s73.45,163.66,163.66,163.66c37.43,0,69.74-10.12,93.43-29.35,9.48-7.7,25.74-22.51,44.64-40.44h.05l.32-.32c2.8-2.64,5.65-5.39,8.56-8.13l30.21-28.76c-9.05-8.94-20.03-20.57-30-30.64ZM577.64,451.49c-1.72.97-7.75,2.96-12.82,2.96-15.78,0-28.6-12.87-28.6-28.65s12.82-28.6,28.6-28.6c5.87,0,15.13,4.42,20.68,8.67,6.57,5.06,14.54,12.06,23.37,20.14-16.26,14.65-25.85,21.92-31.23,25.47Z"/>
      <path fill="currentColor" d="M838.29,262.15c-48.14,0-95.37,22.94-129.51,62.9-1.34,1.55-2.99,3.41-4.77,5.41,0,0-.01-.01-.02-.02l-9.05,9.99c-1.88,2.04-3.86,4.17-5.92,6.38l.08.07-21.3,23.51c15.99,15.56,32.58,33.23,48.57,50.35,26.44,28.16,51.37,54.77,72.92,71.3,12.44,9.59,32.58,16.26,49.01,16.26,45.5,0,82.5-37,82.5-82.5s-37-82.45-82.5-82.45c-22.03,0-42.65,8.56-58.27,24.18-1.72,1.72-9.26,9.42-20.3,20.63-1.35-1.4-2.69-2.85-4.04-4.25-4.61-4.92-9.27-9.88-13.95-14.84,3.08-3.41,5.82-6.51,7.97-9.01,23.91-28,56.22-44.05,88.59-44.05,60.58,0,109.8,49.27,109.8,109.8s-49.22,109.8-109.8,109.8c-14.06,0-34.14-.97-46.04-9.64-3.5-2.53-7.43-5.6-11.74-9.21l-.07.08-14.61-14.46-37.84,38.32s11.86,12.02,16.02,15.81c5.82,5.3,11.47,9.37,16.64,13.09,24.34,17.61,54.28,19.87,77.66,19.87,90.26,0,163.66-73.4,163.66-163.66s-73.4-163.66-163.66-163.66ZM818.63,405.07c5.33-5.06,12.28-7.86,19.66-7.86,15.78,0,28.65,12.82,28.65,28.6s-12.87,28.65-28.65,28.65c-5.39,0-13.89-3.39-16.21-5.12-7.49-5.76-15.94-13.46-24.99-22.35,11.85-12.01,19.93-20.3,21.54-21.92Z"/>
      <path fill="currentColor" d="M391.34,537.13h-84.31c-58.97,0-106.97-48-106.97-106.97v-169.11h-52.46v169.11c0,87.88,71.56,159.44,159.44,159.44h132.31c-18.89-14.53-35.15-32.32-48-52.46Z"/>
      <path fill="currentColor" d="M307.03,510.48h69.99c-7.4-16.47-12.64-34.05-15.48-52.46h-54.51c-15.37,0-27.86-12.49-27.86-27.86v-169.11h-52.46v169.11c0,44.28,36.04,80.32,80.32,80.32Z"/>
    </g>
    <g>
      <path fill="currentColor" d="M162.87,177.47v12.95h20.02v8.6h-20.02v23.01c0,4.17,1.99,6.43,5.71,6.43h1.09c3.71,0,5.53-2.27,5.53-6.43v-4.62h9.96v4.62c0,10.87-6.43,15.22-15.58,15.22h-1.09c-9.33,0-16.66-4.35-16.66-15.22v-23.01h-6.43v-8.6h6.43v-12.95h11.05Z"/>
      <path fill="currentColor" d="M204.63,169.31v26.63h1.81c2.63-4.08,7.16-6.43,12.86-6.43h1.09c8.97,0,15.4,5.62,15.4,18.12v28.71h-11.14v-26.72c0-7.06-3.53-10.51-9.42-10.51h-1.09c-5.98,0-9.51,3.44-9.51,10.51v26.72h-11.14v-67.02h11.14Z"/>
      <path fill="currentColor" d="M267.67,189.51c12.5,0,21.65,6.88,21.65,20.83v6.07h-33.6v.63c0,7.97,4.08,11.77,10.87,11.77h1.09c6.52,0,9.78-2.72,10.87-7.25h10.24c-1.09,9.78-8.33,15.67-21.1,15.67h-1.09c-12.41,0-21.65-6.79-21.65-20.65v-6.25c0-13.95,9.24-20.83,21.65-20.83h1.09ZM255.71,208.35h22.82c-.27-6.79-4.62-10.42-10.96-10.42h-1.09c-6.61,0-10.51,3.53-10.78,10.42Z"/>
    </g>
  </symbol>

  <!-- The Loop wordmark logo -->
  <symbol id="logo" viewBox="145 255 1210 338">
    <path fill="currentColor" d="M1192.97,257.74c-87.91,0-159.43,71.52-159.43,159.43v172.28h52.46v-172.28c0-58.99,47.99-106.97,106.97-106.97s106.97,47.99,106.97,106.97-47.99,106.97-106.97,106.97c-9.56,0-18.87-1.27-27.87-3.69v-28.03c8.7,3.23,18.06,5.09,27.87,5.09,44.3,0,80.33-36.04,80.33-80.33s-36.04-80.33-80.33-80.33-80.33,36.04-80.33,80.33v172.28h52.46v-15.31c9.19,1.63,18.52,2.46,27.87,2.46,87.91,0,159.43-71.52,159.43-159.43s-71.52-159.43-159.43-159.43ZM1192.97,389.3c15.37,0,27.87,12.5,27.87,27.87s-12.5,27.87-27.87,27.87-27.87-12.5-27.87-27.87,12.5-27.87,27.87-27.87Z"/>
    <path fill="currentColor" d="M712.06,451.81c-34.25-34.47-69.68-70.12-93.76-88.64-6.03-4.63-27.79-19.82-53.47-19.82-45.45,0-82.45,37-82.45,82.45s37,82.5,82.45,82.5c14.86,0,31.45-4.63,42.27-11.74,10.18-6.73,23.8-17.77,40.6-33.01,5.92,5.87,11.79,11.79,17.66,17.72-17.88,16.96-31.93,29.62-41.03,37-17.66,14.32-42.11,17.34-59.51,17.34-60.53,0-109.8-49.22-109.8-109.8s49.27-109.8,109.8-109.8c19.39,0,29.78,1.83,49.76,11.9,3.29,1.67,6.95,3.88,10.88,6.52,5.28,3.77,11.04,8.29,17.23,13.62l35.92-39.74c-7.59-6.84-16.37-14.32-23.16-18.69v.05c-5.82-3.93-11.31-7.16-16.64-9.85-29.35-14.81-48.68-17.66-73.99-17.66-90.2,0-163.66,73.45-163.66,163.66s73.45,163.66,163.66,163.66c37.43,0,69.74-10.12,93.43-29.35,9.48-7.7,25.74-22.51,44.64-40.44h.05l.32-.32c2.8-2.64,5.65-5.39,8.56-8.13l30.21-28.76c-9.05-8.94-20.03-20.57-30-30.64ZM577.64,451.49c-1.72.97-7.75,2.96-12.82,2.96-15.78,0-28.6-12.87-28.6-28.65s12.82-28.6,28.6-28.6c5.87,0,15.13,4.42,20.68,8.67,6.57,5.06,14.54,12.06,23.37,20.14-16.26,14.65-25.85,21.92-31.23,25.47Z"/>
    <path fill="currentColor" d="M838.29,262.15c-48.14,0-95.37,22.94-129.51,62.9-1.34,1.55-2.99,3.41-4.77,5.41,0,0-.01-.01-.02-.02l-9.05,9.99c-1.88,2.04-3.86,4.17-5.92,6.38l.08.07-21.3,23.51c15.99,15.56,32.58,33.23,48.57,50.35,26.44,28.16,51.37,54.77,72.92,71.3,12.44,9.59,32.58,16.26,49.01,16.26,45.5,0,82.5-37,82.5-82.5s-37-82.45-82.5-82.45c-22.03,0-42.65,8.56-58.27,24.18-1.72,1.72-9.26,9.42-20.3,20.63-1.35-1.4-2.69-2.85-4.04-4.25-4.61-4.92-9.27-9.88-13.95-14.84,3.08-3.41,5.82-6.51,7.97-9.01,23.91-28,56.22-44.05,88.59-44.05,60.58,0,109.8,49.27,109.8,109.8s-49.22,109.8-109.8,109.8c-14.06,0-34.14-.97-46.04-9.64-3.5-2.53-7.43-5.6-11.74-9.21l-.07.08-14.61-14.46-37.84,38.32s11.86,12.02,16.02,15.81c5.82,5.3,11.47,9.37,16.64,13.09,24.34,17.61,54.28,19.87,77.66,19.87,90.26,0,163.66-73.4,163.66-163.66s-73.4-163.66-163.66-163.66ZM818.63,405.07c5.33-5.06,12.28-7.86,19.66-7.86,15.78,0,28.65,12.82,28.65,28.6s-12.87,28.65-28.65,28.65c-5.39,0-13.89-3.39-16.21-5.12-7.49-5.76-15.94-13.46-24.99-22.35,11.85-12.01,19.93-20.3,21.54-21.92Z"/>
    <path fill="currentColor" d="M391.34,537.13h-84.31c-58.97,0-106.97-48-106.97-106.97v-169.11h-52.46v169.11c0,87.88,71.56,159.44,159.44,159.44h132.31c-18.89-14.53-35.15-32.32-48-52.46Z"/>
    <path fill="currentColor" d="M307.03,510.48h69.99c-7.4-16.47-12.64-34.05-15.48-52.46h-54.51c-15.37,0-27.86-12.49-27.86-27.86v-169.11h-52.46v169.11c0,44.28,36.04,80.32,80.32,80.32Z"/>
  </symbol>

  <!-- External link — Feather Icons -->
  <symbol id="external-link" viewBox="0 0 24 24" fill="none" stroke="currentColor" stroke-width="2" stroke-linecap="round" stroke-linejoin="round">
    <path d="M18 13v6a2 2 0 0 1-2 2H5a2 2 0 0 1-2-2V8a2 2 0 0 1 2-2h6"/>
    <polyline points="15 3 21 3 21 9"/>
    <line x1="10" y1="14" x2="21" y2="3"/>
  </symbol>

  <!-- Globe (website) — Feather Icons -->
  <symbol id="globe" viewBox="0 0 24 24" fill="none" stroke="currentColor" stroke-width="2" stroke-linecap="round" stroke-linejoin="round">
    <circle cx="12" cy="12" r="10"/>
    <line x1="2" y1="12" x2="22" y2="12"/>
    <path d="M12 2a15.3 15.3 0 0 1 4 10 15.3 15.3 0 0 1-4 10 15.3 15.3 0 0 1-4-10 15.3 15.3 0 0 1 4-10z"/>
  </symbol>

  <!-- Instagram — Simple Icons -->
  <symbol id="instagram" viewBox="0 0 24 24" fill="currentColor">
    <path d="M12 2.163c3.204 0 3.584.012 4.85.07 3.252.148 4.771 1.691 4.919 4.919.058 1.265.069 1.645.069 4.849 0 3.205-.012 3.584-.069 4.849-.149 3.225-1.664 4.771-4.919 4.919-1.266.058-1.644.07-4.85.07-3.204 0-3.584-.012-4.849-.07-3.26-.149-4.771-1.699-4.919-4.92-.058-1.265-.07-1.644-.07-4.849 0-3.204.013-3.583.07-4.849.149-3.227 1.664-4.771 4.919-4.919 1.266-.057 1.645-.069 4.849-.069zm0-2.163c-3.259 0-3.667.014-4.947.072-4.358.2-6.78 2.618-6.98 6.98-.059 1.281-.073 1.689-.073 4.948 0 3.259.014 3.668.072 4.948.2 4.358 2.618 6.78 6.98 6.98 1.281.058 1.689.072 4.948.072 3.259 0 3.668-.014 4.948-.072 4.354-.2 6.782-2.618 6.979-6.98.059-1.28.073-1.689.073-4.948 0-3.259-.014-3.667-.072-4.947-.196-4.354-2.617-6.78-6.979-6.98-1.281-.059-1.69-.073-4.949-.073zm0 5.838c-3.403 0-6.162 2.759-6.162 6.162s2.759 6.163 6.162 6.163 6.162-2.759 6.162-6.163c0-3.403-2.759-6.162-6.162-6.162zm0 10.162c-2.209 0-4-1.79-4-4 0-2.209 1.791-4 4-4s4 1.791 4 4c0 2.21-1.791 4-4 4zm6.406-11.845c-.796 0-1.441.645-1.441 1.44s.645 1.44 1.441 1.44c.795 0 1.439-.645 1.439-1.44s-.644-1.44-1.439-1.44z"/>
  </symbol>

  <!-- Facebook — Simple Icons -->
  <symbol id="facebook" viewBox="0 0 24 24" fill="currentColor">
    <path d="M24 12.073c0-6.627-5.373-12-12-12s-12 5.373-12 12c0 5.99 4.388 10.954 10.125 11.854v-8.385H7.078v-3.47h3.047V9.43c0-3.007 1.792-4.669 4.533-4.669 1.312 0 2.686.235 2.686.235v2.953H15.83c-1.491 0-1.956.925-1.956 1.874v2.25h3.328l-.532 3.47h-2.796v8.385C19.612 23.027 24 18.062 24 12.073z"/>
  </symbol>

  <!-- Mixcloud — Simple Icons -->
  <symbol id="mixcloud" viewBox="0 0 24 24" fill="currentColor">
    <path d="M2.462 8.596l1.372 6.49h.319l1.372-6.49h2.462v6.808H6.742v-5.68l.232-.81h-.402l-1.43 6.49H2.854l-1.44-6.49h-.391l.222.81v5.68H0V8.596zM24 8.63v1.429L21.257 12 24 13.941v1.43l-3.235-2.329h-.348l-3.226 2.329v-1.43l2.734-1.94-2.733-1.942V8.63l3.225 2.338h.348zm-7.869 2.75v1.24H9.304v-1.24z"/>
  </symbol>

  <!-- SoundCloud — Simple Icons -->
  <symbol id="soundcloud" viewBox="0 0 24 24" fill="currentColor">
    <path d="M11.56 8.87V17h4.637v-1.401h-3.04V8.87zm-2.097 8.13h1.443V9.217a5.28 5.28 0 0 0-1.443-.328zm-1.443.0h1.082v-8.44a5.62 5.62 0 0 0-1.082.59zm-1.443 0h1.082v-7.1a4.07 4.07 0 0 0-1.082 1.49zm-1.443 0h1.082V13.5A3.5 3.5 0 0 0 5.577 17zm-1.02 0h.66v-2.18a2.2 2.2 0 0 0-.66.68zm16.4-6.21c-.3-2.77-2.63-4.93-5.47-4.93-1.47 0-2.8.57-3.8 1.5V17h9.27c1.52 0 2.76-1.24 2.76-2.76 0-1.42-1.08-2.6-2.46-2.75-.09-.01-.19-.01-.28-.01-.01-.15-.02-.29-.02-.43z"/>
  </symbol>

  <!-- Patreon — Simple Icons -->
  <symbol id="patreon" viewBox="0 0 24 24" fill="currentColor">
    <path d="M22.957 7.21c-.004-3.064-2.391-5.576-5.191-6.482-3.478-1.125-8.064-.962-11.384.604C2.357 3.231 1.093 7.391 1.046 11.54c-.039 3.411.302 12.396 5.369 12.46 3.765.047 4.326-4.804 6.068-7.141 1.24-1.662 2.836-2.132 4.801-2.618 3.376-.836 5.678-3.501 5.673-7.031Z"/>
  </symbol>

  <!-- YouTube — Simple Icons -->
  <symbol id="youtube" viewBox="0 0 24 24" fill="currentColor">
    <path d="M23.498 6.186a3.016 3.016 0 0 0-2.122-2.136C19.505 3.545 12 3.545 12 3.545s-7.505 0-9.377.505A3.017 3.017 0 0 0 .502 6.186C0 8.07 0 12 0 12s0 3.93.502 5.814a3.016 3.016 0 0 0 2.122 2.136c1.871.505 9.376.505 9.376.505s7.505 0 9.377-.505a3.015 3.015 0 0 0 2.122-2.136C24 15.93 24 12 24 12s0-3.93-.502-5.814zM9.545 15.568V8.432L15.818 12l-6.273 3.568z"/>
  </symbol>

  <!-- Spotify — Simple Icons -->
  <symbol id="spotify" viewBox="0 0 24 24" fill="currentColor">
    <path d="M12 0C5.4 0 0 5.4 0 12s5.4 12 12 12 12-5.4 12-12S18.66 0 12 0zm5.521 17.34c-.24.359-.66.48-1.021.24-2.82-1.74-6.36-2.101-10.561-1.141-.418.122-.779-.179-.899-.539-.12-.421.18-.78.54-.9 4.56-1.021 8.52-.6 11.64 1.32.42.18.479.659.301 1.02zm1.44-3.3c-.301.42-.841.6-1.262.3-3.239-1.98-8.159-2.58-11.939-1.38-.479.12-1.02-.12-1.14-.6-.12-.48.12-1.021.6-1.141C9.6 9.9 15 10.561 18.72 12.84c.361.181.54.78.241 1.2zm.12-3.36C15.24 8.4 8.82 8.16 5.16 9.301c-.6.179-1.2-.181-1.38-.721-.18-.601.18-1.2.72-1.381 4.26-1.26 11.28-1.02 15.721 1.621.539.3.719 1.02.419 1.56-.299.421-1.02.599-1.559.3z"/>
  </symbol>


  <!-- Buy Me a Coffee — Simple Icons -->
  <symbol id="buymeacoffee" viewBox="0 0 24 24" fill="currentColor">
    <path d="M20.216 6.415l-.132-.666c-.119-.598-.388-1.163-1.001-1.379-.197-.069-.42-.098-.57-.241-.152-.143-.196-.366-.231-.572-.065-.378-.125-.756-.192-1.133-.057-.325-.102-.69-.25-.987-.195-.4-.597-.634-.996-.788a5.723 5.723 0 00-.626-.194c-1-.263-2.05-.36-3.077-.416a25.834 25.834 0 00-3.7.062c-.915.083-1.88.184-2.75.5-.318.116-.646.256-.888.501-.297.302-.393.77-.177 1.146.154.267.415.456.692.58.36.162.737.284 1.123.366 1.075.238 2.189.331 3.287.37 1.218.05 2.437.01 3.65-.118.299-.033.598-.073.896-.119.352-.054.578-.513.474-.834-.124-.383-.457-.531-.834-.473-.466.074-.96.108-1.382.146-1.177.08-2.358.082-3.536.006a22.228 22.228 0 01-1.157-.107c-.086-.01-.18-.025-.258-.036-.243-.036-.484-.08-.724-.13-.111-.027-.111-.185 0-.212h.005c.277-.06.557-.108.838-.147h.002c.131-.009.263-.032.394-.048a25.076 25.076 0 013.426-.12c.674.019 1.347.067 2.017.144l.228.031c.267.04.533.088.798.145.392.085.895.113 1.07.542.055.137.08.288.111.431l.319 1.484a.237.237 0 01-.199.284h-.003c-.037.006-.075.01-.112.015a36.704 36.704 0 01-4.743.295 37.059 37.059 0 01-4.699-.304c-.14-.017-.293-.042-.417-.06-.326-.048-.649-.108-.973-.161-.393-.065-.768-.032-1.123.161-.29.16-.527.404-.675.701-.154.316-.199.66-.267 1-.069.34-.176.707-.135 1.056.087.753.613 1.365 1.37 1.502a39.69 39.69 0 0011.343.376.483.483 0 01.535.53l-.071.697-1.018 9.907c-.041.41-.047.832-.125 1.237-.122.637-.553 1.028-1.182 1.171-.577.131-1.165.2-1.756.205-.656.004-1.31-.025-1.966-.022-.699.004-1.556-.06-2.095-.58-.475-.458-.54-1.174-.605-1.793l-.731-7.013-.322-3.094c-.037-.351-.286-.695-.678-.678-.336.015-.718.3-.678.679l.228 2.185.949 9.112c.147 1.344 1.174 2.068 2.446 2.272.742.12 1.503.144 2.257.156.966.016 1.942.053 2.892-.122 1.408-.258 2.465-1.198 2.616-2.657.34-3.332.683-6.663 1.024-9.995l.215-2.087a.484.484 0 01.39-.426c.402-.078.787-.212 1.074-.518.455-.488.546-1.124.385-1.766zm-1.478.772c-.145.137-.363.201-.578.233-2.416.359-4.866.54-7.308.46-1.748-.06-3.477-.254-5.207-.498-.17-.024-.353-.055-.47-.18-.22-.236-.111-.71-.054-.995.052-.26.152-.609.463-.646.484-.057 1.046.148 1.526.22.577.088 1.156.159 1.737.212 2.48.226 5.002.19 7.472-.14.45-.06.899-.13 1.345-.21.399-.072.84-.206 1.08.206.166.281.188.657.162.974a.544.544 0 01-.169.364zm-6.159 3.9c-.862.37-1.84.788-3.109.788a5.884 5.884 0 01-1.569-.217l.877 9.004c.065.78.717 1.38 1.5 1.38 0 0 1.243.065 1.658.065.447 0 1.786-.065 1.786-.065.783 0 1.434-.6 1.499-1.38l.94-9.95a3.996 3.996 0 00-1.322-.238c-.826 0-1.491.284-2.26.613z"/>
  </symbol>

</svg>
