<svg xmlns="http://www.w3.org/2000/svg" style="display:none">

  <!-- Globe (website) — Feather Icons -->
  <symbol id="globe" viewBox="0 0 24 24" fill="none" stroke="currentColor" stroke-width="2" stroke-linecap="round" stroke-linejoin="round">
    <circle cx="12" cy="12" r="10"/>
    <line x1="2" y1="12" x2="22" y2="12"/>
    <path d="M12 2a15.3 15.3 0 0 1 4 10 15.3 15.3 0 0 1-4 10 15.3 15.3 0 0 1-4-10 15.3 15.3 0 0 1 4-10z"/>
  </symbol>

  <!-- Instagram — Simple Icons -->
  <symbol id="instagram" viewBox="0 0 24 24" fill="currentColor">
    <path d="M12 2.163c3.204 0 3.584.012 4.85.07 3.252.148 4.771 1.691 4.919 4.919.058 1.265.069 1.645.069 4.849 0 3.205-.012 3.584-.069 4.849-.149 3.225-1.664 4.771-4.919 4.919-1.266.058-1.644.07-4.85.07-3.204 0-3.584-.012-4.849-.07-3.26-.149-4.771-1.699-4.919-4.92-.058-1.265-.07-1.644-.07-4.849 0-3.204.013-3.583.07-4.849.149-3.227 1.664-4.771 4.919-4.919 1.266-.057 1.645-.069 4.849-.069zm0-2.163c-3.259 0-3.667.014-4.947.072-4.358.2-6.78 2.618-6.98 6.98-.059 1.281-.073 1.689-.073 4.948 0 3.259.014 3.668.072 4.948.2 4.358 2.618 6.78 6.98 6.98 1.281.058 1.689.072 4.948.072 3.259 0 3.668-.014 4.948-.072 4.354-.2 6.782-2.618 6.979-6.98.059-1.28.073-1.689.073-4.948 0-3.259-.014-3.667-.072-4.947-.196-4.354-2.617-6.78-6.979-6.98-1.281-.059-1.69-.073-4.949-.073zm0 5.838c-3.403 0-6.162 2.759-6.162 6.162s2.759 6.163 6.162 6.163 6.162-2.759 6.162-6.163c0-3.403-2.759-6.162-6.162-6.162zm0 10.162c-2.209 0-4-1.79-4-4 0-2.209 1.791-4 4-4s4 1.791 4 4c0 2.21-1.791 4-4 4zm6.406-11.845c-.796 0-1.441.645-1.441 1.44s.645 1.44 1.441 1.44c.795 0 1.439-.645 1.439-1.44s-.644-1.44-1.439-1.44z"/>
  </symbol>

  <!-- Facebook — Simple Icons -->
  <symbol id="facebook" viewBox="0 0 24 24" fill="currentColor">
    <path d="M24 12.073c0-6.627-5.373-12-12-12s-12 5.373-12 12c0 5.99 4.388 10.954 10.125 11.854v-8.385H7.078v-3.47h3.047V9.43c0-3.007 1.792-4.669 4.533-4.669 1.312 0 2.686.235 2.686.235v2.953H15.83c-1.491 0-1.956.925-1.956 1.874v2.25h3.328l-.532 3.47h-2.796v8.385C19.612 23.027 24 18.062 24 12.073z"/>
  </symbol>

  <!-- Mixcloud — Simple Icons -->
  <symbol id="mixcloud" viewBox="0 0 24 24" fill="currentColor">
    <path d="M2.462 8.596l1.372 6.49h.319l1.372-6.49h2.462v6.808H6.742v-5.68l.232-.81h-.402l-1.43 6.49H2.854l-1.44-6.49h-.391l.222.81v5.68H0V8.596zM24 8.63v1.429L21.257 12 24 13.941v1.43l-3.235-2.329h-.348l-3.226 2.329v-1.43l2.734-1.94-2.733-1.942V8.63l3.225 2.338h.348zm-7.869 2.75v1.24H9.304v-1.24z"/>
  </symbol>

  <!-- SoundCloud — Simple Icons -->
  <symbol id="soundcloud" viewBox="0 0 24 24" fill="currentColor">
    <path d="M11.56 8.87V17h4.637v-1.401h-3.04V8.87zm-2.097 8.13h1.443V9.217a5.28 5.28 0 0 0-1.443-.328zm-1.443.0h1.082v-8.44a5.62 5.62 0 0 0-1.082.59zm-1.443 0h1.082v-7.1a4.07 4.07 0 0 0-1.082 1.49zm-1.443 0h1.082V13.5A3.5 3.5 0 0 0 5.577 17zm-1.02 0h.66v-2.18a2.2 2.2 0 0 0-.66.68zm16.4-6.21c-.3-2.77-2.63-4.93-5.47-4.93-1.47 0-2.8.57-3.8 1.5V17h9.27c1.52 0 2.76-1.24 2.76-2.76 0-1.42-1.08-2.6-2.46-2.75-.09-.01-.19-.01-.28-.01-.01-.15-.02-.29-.02-.43z"/>
  </symbol>

  <!-- Patreon — Simple Icons -->
  <symbol id="patreon" viewBox="0 0 24 24" fill="currentColor">
    <path d="M22.957 7.21c-.004-3.064-2.391-5.576-5.191-6.482-3.478-1.125-8.064-.962-11.384.604C2.357 3.231 1.093 7.391 1.046 11.54c-.039 3.411.302 12.396 5.369 12.46 3.765.047 4.326-4.804 6.068-7.141 1.24-1.662 2.836-2.132 4.801-2.618 3.376-.836 5.678-3.501 5.673-7.031Z"/>
  </symbol>

  <!-- YouTube — Simple Icons -->
  <symbol id="youtube" viewBox="0 0 24 24" fill="currentColor">
    <path d="M23.498 6.186a3.016 3.016 0 0 0-2.122-2.136C19.505 3.545 12 3.545 12 3.545s-7.505 0-9.377.505A3.017 3.017 0 0 0 .502 6.186C0 8.07 0 12 0 12s0 3.93.502 5.814a3.016 3.016 0 0 0 2.122 2.136c1.871.505 9.376.505 9.376.505s7.505 0 9.377-.505a3.015 3.015 0 0 0 2.122-2.136C24 15.93 24 12 24 12s0-3.93-.502-5.814zM9.545 15.568V8.432L15.818 12l-6.273 3.568z"/>
  </symbol>

  <!-- Spotify — Simple Icons -->
  <symbol id="spotify" viewBox="0 0 24 24" fill="currentColor">
    <path d="M12 0C5.4 0 0 5.4 0 12s5.4 12 12 12 12-5.4 12-12S18.66 0 12 0zm5.521 17.34c-.24.359-.66.48-1.021.24-2.82-1.74-6.36-2.101-10.561-1.141-.418.122-.779-.179-.899-.539-.12-.421.18-.78.54-.9 4.56-1.021 8.52-.6 11.64 1.32.42.18.479.659.301 1.02zm1.44-3.3c-.301.42-.841.6-1.262.3-3.239-1.98-8.159-2.58-11.939-1.38-.479.12-1.02-.12-1.14-.6-.12-.48.12-1.021.6-1.141C9.6 9.9 15 10.561 18.72 12.84c.361.181.54.78.241 1.2zm.12-3.36C15.24 8.4 8.82 8.16 5.16 9.301c-.6.179-1.2-.181-1.38-.721-.18-.601.18-1.2.72-1.381 4.26-1.26 11.28-1.02 15.721 1.621.539.3.719 1.02.419 1.56-.299.421-1.02.599-1.559.3z"/>
  </symbol>

</svg>
